#Comment line ignore any data following # character 
#Hierarchical Translation and Rotation (.htr) file 
[Header]	
#Header keywords are followed by a single value 
FileType HTR		#Single word string
DataType HTRS		#Translation followed by rotation and scale data
FileVersion 1		#integer
NumSegments 84		#integer
NumFrames 2		#integer
DataFrameRate 30		#integer, data frame rate in this file
EulerRotationOrder ZYX
CalibrationUnits mm
RotationUnits Degrees
GlobalAxisofGravity Y
BoneLengthAxis Y
ScaleFactor 1.00
[SegmentNames&Hierarchy]
#CHILD	PARENT
MASTER GLOBAL
root MASTER
chest root
L_mid_tent01 root
R_mid_tent01 root
spine01 root
Bip01_Neck chest
L_humerus chest
R_humerus chest
weapon_bone chest
Bip01_Head Bip01_Neck
eye_left_bone Bip01_Head
eye_right_bone Bip01_Head
L_forearm L_humerus
L_front_hand L_forearm
L_weapon_bone L_forearm
L_front_hand01_01 L_front_hand
L_front_hand02_01 L_front_hand
L_front_hand03_01 L_front_hand
L_front_hand01_02 L_front_hand01_01
L_front_hand02_02 L_front_hand02_01
L_front_hand03_02 L_front_hand03_01
R_forearm R_humerus
R_front_hand R_forearm
R_weapon_bone R_forearm
R_front_hand01_01 R_front_hand
R_front_hand02_01 R_front_hand
R_front_hand03_01 R_front_hand
R_front_hand01_02 R_front_hand01_01
R_front_hand02_02 R_front_hand02_01
R_front_hand03_02 R_front_hand03_01
null_rope01_connect L_mid_tent01
Rope1_Seg01 null_rope01_connect
Rope1_Seg02 Rope1_Seg01
Rope1_Seg03 Rope1_Seg02
Rope1_Seg04 Rope1_Seg03
Rope1_Seg05 Rope1_Seg04
Rope1_Seg06 Rope1_Seg05
Rope1_Seg07 Rope1_Seg06
Rope1_Seg09 Rope1_Seg07
L_mid_hand01 Rope1_Seg09
L_mid_hand02 Rope1_Seg09
L_mid_hand03 Rope1_Seg09
null_rope02_connect R_mid_tent01
Rope2_Seg01 null_rope02_connect
Rope2_Seg02 Rope2_Seg01
Rope2_Seg03 Rope2_Seg02
Rope2_Seg04 Rope2_Seg03
Rope2_Seg05 Rope2_Seg04
Rope2_Seg06 Rope2_Seg05
Rope2_Seg07 Rope2_Seg06
Rope2_Seg09 Rope2_Seg07
R_mid_hand01 Rope2_Seg09
R_mid_hand02 Rope2_Seg09
R_mid_hand03 Rope2_Seg09
spine02 spine01
spine03 spine02
pelvis spine03
null_rope03_connect pelvis
null_rope04_connect pelvis
Rope3_Seg01 null_rope03_connect
Rope3_Seg02 Rope3_Seg01
Rope3_Seg03 Rope3_Seg02
Rope3_Seg04 Rope3_Seg03
Rope3_Seg05 Rope3_Seg04
Rope3_Seg06 Rope3_Seg05
Rope3_Seg07 Rope3_Seg06
Rope3_Seg08 Rope3_Seg07
Rope3_Seg09 Rope3_Seg08
R_rear_hand01 Rope3_Seg09
R_rear_hand02 Rope3_Seg09
R_rear_hand03 Rope3_Seg09
Rope4_Seg01 null_rope04_connect
Rope4_Seg02 Rope4_Seg01
Rope4_Seg03 Rope4_Seg02
Rope4_Seg04 Rope4_Seg03
Rope4_Seg05 Rope4_Seg04
Rope4_Seg06 Rope4_Seg05
Rope4_Seg07 Rope4_Seg06
Rope4_Seg08 Rope4_Seg07
Rope4_Seg09 Rope4_Seg08
L_rear_hand01 Rope4_Seg09
L_rear_hand02 Rope4_Seg09
L_rear_hand03 Rope4_Seg09
[BasePosition]
#SegmentName Tx, Ty, Tz, Rx, Ry, Rz, BoneLength
MASTER 0.000000 0.000000 0.000000 -90.000000 0.000000 0.000000 10.000000 
root 0.000000 0.000000 0.000000 0.000000 0.000000 0.000000 10.000000 
chest 0.000000 0.000000 0.000000 0.000000 0.000000 0.000000 10.000000 
L_mid_tent01 0.000000 0.000000 0.000000 0.000000 0.000000 0.000000 10.000000 
R_mid_tent01 0.000000 0.000000 0.000000 0.000000 0.000000 0.000000 10.000000 
spine01 0.000000 0.000000 0.000000 0.000000 0.000000 0.000000 10.000000 
Bip01_Neck 0.000000 0.000000 0.000000 0.000000 0.000000 0.000000 10.000000 
L_humerus 0.000000 0.000000 0.000000 0.000000 0.000000 0.000000 10.000000 
R_humerus 0.000000 0.000000 0.000000 0.000000 0.000000 0.000000 10.000000 
weapon_bone 0.000000 0.000000 0.000000 0.000000 0.000000 0.000000 10.000000 
Bip01_Head 0.000000 0.000000 0.000000 0.000000 0.000000 0.000000 10.000000 
eye_left_bone 0.000000 0.000000 0.000000 0.000000 0.000000 0.000000 10.000000 
eye_right_bone 0.000000 0.000000 0.000000 0.000000 0.000000 0.000000 10.000000 
L_forearm 0.000000 0.000000 0.000000 0.000000 0.000000 0.000000 10.000000 
L_front_hand 0.000000 0.000000 0.000000 0.000000 0.000000 0.000000 10.000000 
L_weapon_bone 0.000000 0.000000 0.000000 0.000000 0.000000 0.000000 10.000000 
L_front_hand01_01 0.000000 0.000000 0.000000 0.000000 0.000000 0.000000 10.000000 
L_front_hand02_01 0.000000 0.000000 0.000000 0.000000 0.000000 0.000000 10.000000 
L_front_hand03_01 0.000000 0.000000 0.000000 0.000000 0.000000 0.000000 10.000000 
L_front_hand01_02 0.000000 0.000000 0.000000 0.000000 0.000000 0.000000 10.000000 
L_front_hand02_02 0.000000 0.000000 0.000000 0.000000 0.000000 0.000000 10.000000 
L_front_hand03_02 0.000000 0.000000 0.000000 0.000000 0.000000 0.000000 10.000000 
R_forearm 0.000000 0.000000 0.000000 0.000000 0.000000 0.000000 10.000000 
R_front_hand 0.000000 0.000000 0.000000 0.000000 0.000000 0.000000 10.000000 
R_weapon_bone 0.000000 0.000000 0.000000 0.000000 0.000000 0.000000 10.000000 
R_front_hand01_01 0.000000 0.000000 0.000000 0.000000 0.000000 0.000000 10.000000 
R_front_hand02_01 0.000000 0.000000 0.000000 0.000000 0.000000 0.000000 10.000000 
R_front_hand03_01 0.000000 0.000000 0.000000 0.000000 0.000000 0.000000 10.000000 
R_front_hand01_02 0.000000 0.000000 0.000000 0.000000 0.000000 0.000000 10.000000 
R_front_hand02_02 0.000000 0.000000 0.000000 0.000000 0.000000 0.000000 10.000000 
R_front_hand03_02 0.000000 0.000000 0.000000 0.000000 0.000000 0.000000 10.000000 
null_rope01_connect 0.000000 0.000000 0.000000 0.000000 0.000000 0.000000 10.000000 
Rope1_Seg01 0.000000 0.000000 0.000000 0.000000 0.000000 0.000000 10.000000 
Rope1_Seg02 0.000000 0.000000 0.000000 0.000000 0.000000 0.000000 10.000000 
Rope1_Seg03 0.000000 0.000000 0.000000 0.000000 0.000000 0.000000 10.000000 
Rope1_Seg04 0.000000 0.000000 0.000000 0.000000 0.000000 0.000000 10.000000 
Rope1_Seg05 0.000000 0.000000 0.000000 0.000000 0.000000 0.000000 10.000000 
Rope1_Seg06 0.000000 0.000000 0.000000 0.000000 0.000000 0.000000 10.000000 
Rope1_Seg07 0.000000 0.000000 0.000000 0.000000 0.000000 0.000000 10.000000 
Rope1_Seg09 0.000000 0.000000 0.000000 0.000000 0.000000 0.000000 10.000000 
L_mid_hand01 0.000000 0.000000 0.000000 0.000000 0.000000 0.000000 10.000000 
L_mid_hand02 0.000000 0.000000 0.000000 0.000000 0.000000 0.000000 10.000000 
L_mid_hand03 0.000000 0.000000 0.000000 0.000000 0.000000 0.000000 10.000000 
null_rope02_connect 0.000000 0.000000 0.000000 0.000000 0.000000 0.000000 10.000000 
Rope2_Seg01 0.000000 0.000000 0.000000 0.000000 0.000000 0.000000 10.000000 
Rope2_Seg02 0.000000 0.000000 0.000000 0.000000 0.000000 0.000000 10.000000 
Rope2_Seg03 0.000000 0.000000 0.000000 0.000000 0.000000 0.000000 10.000000 
Rope2_Seg04 0.000000 0.000000 0.000000 0.000000 0.000000 0.000000 10.000000 
Rope2_Seg05 0.000000 0.000000 0.000000 0.000000 0.000000 0.000000 10.000000 
Rope2_Seg06 0.000000 0.000000 0.000000 0.000000 0.000000 0.000000 10.000000 
Rope2_Seg07 0.000000 0.000000 0.000000 0.000000 0.000000 0.000000 10.000000 
Rope2_Seg09 0.000000 0.000000 0.000000 0.000000 0.000000 0.000000 10.000000 
R_mid_hand01 0.000000 0.000000 0.000000 0.000000 0.000000 0.000000 10.000000 
R_mid_hand02 0.000000 0.000000 0.000000 0.000000 0.000000 0.000000 10.000000 
R_mid_hand03 0.000000 0.000000 0.000000 0.000000 0.000000 0.000000 10.000000 
spine02 0.000000 0.000000 0.000000 0.000000 0.000000 0.000000 10.000000 
spine03 0.000000 0.000000 0.000000 0.000000 0.000000 0.000000 10.000000 
pelvis 0.000000 0.000000 0.000000 0.000000 0.000000 0.000000 10.000000 
null_rope03_connect 0.000000 0.000000 0.000000 0.000000 0.000000 0.000000 10.000000 
null_rope04_connect 0.000000 0.000000 0.000000 0.000000 0.000000 0.000000 10.000000 
Rope3_Seg01 0.000000 0.000000 0.000000 0.000000 0.000000 0.000000 10.000000 
Rope3_Seg02 0.000000 0.000000 0.000000 0.000000 0.000000 0.000000 10.000000 
Rope3_Seg03 0.000000 0.000000 0.000000 0.000000 0.000000 0.000000 10.000000 
Rope3_Seg04 0.000000 0.000000 0.000000 0.000000 0.000000 0.000000 10.000000 
Rope3_Seg05 0.000000 0.000000 0.000000 0.000000 0.000000 0.000000 10.000000 
Rope3_Seg06 0.000000 0.000000 0.000000 0.000000 0.000000 0.000000 10.000000 
Rope3_Seg07 0.000000 0.000000 0.000000 0.000000 0.000000 0.000000 10.000000 
Rope3_Seg08 0.000000 0.000000 0.000000 0.000000 0.000000 0.000000 10.000000 
Rope3_Seg09 0.000000 0.000000 0.000000 0.000000 0.000000 0.000000 10.000000 
R_rear_hand01 0.000000 0.000000 0.000000 0.000000 0.000000 0.000000 10.000000 
R_rear_hand02 0.000000 0.000000 0.000000 0.000000 0.000000 0.000000 10.000000 
R_rear_hand03 0.000000 0.000000 0.000000 0.000000 0.000000 0.000000 10.000000 
Rope4_Seg01 0.000000 0.000000 0.000000 0.000000 0.000000 0.000000 10.000000 
Rope4_Seg02 0.000000 0.000000 0.000000 0.000000 0.000000 0.000000 10.000000 
Rope4_Seg03 0.000000 0.000000 0.000000 0.000000 0.000000 0.000000 10.000000 
Rope4_Seg04 0.000000 0.000000 0.000000 0.000000 0.000000 0.000000 10.000000 
Rope4_Seg05 0.000000 0.000000 0.000000 0.000000 0.000000 0.000000 10.000000 
Rope4_Seg06 0.000000 0.000000 0.000000 0.000000 0.000000 0.000000 10.000000 
Rope4_Seg07 0.000000 0.000000 0.000000 0.000000 0.000000 0.000000 10.000000 
Rope4_Seg08 0.000000 0.000000 0.000000 0.000000 0.000000 0.000000 10.000000 
Rope4_Seg09 0.000000 0.000000 0.000000 0.000000 0.000000 0.000000 10.000000 
L_rear_hand01 0.000000 0.000000 0.000000 0.000000 0.000000 0.000000 10.000000 
L_rear_hand02 0.000000 0.000000 0.000000 0.000000 0.000000 0.000000 10.000000 
L_rear_hand03 0.000000 0.000000 0.000000 0.000000 0.000000 0.000000 10.000000 
#Beginning of Data. Separated by tabs
#Fr	Tx	Ty	Tz	Rx	Ry	Rz	SF
[MASTER]
22 -1665.835083 -4110.921875 0.000000 0.000487 0.002296 -66.025795 4435.615723
23 -1706.389160 -4321.725098 0.000000 0.000512 0.002291 -64.779823 4646.403809
[root]
22 -62.822216 82.196312 1066.306396 -88.444092 -7.317677 179.791870 1071.313232
23 -62.822155 87.740479 1077.493164 -89.278648 -6.298012 179.603058 1082.883423
[chest]
22 -84.512650 -34.090519 0.000000 9.989947 -0.743754 156.385483 91.129311
23 -84.512650 -34.090519 0.000000 8.506291 -0.743791 156.384705 91.129311
[L_mid_tent01]
22 23.228750 24.509907 -223.761200 -6.399195 21.245455 0.554105 226.294907
23 23.228750 24.509907 -223.761200 -6.658278 19.221697 2.144283 226.294907
[R_mid_tent01]
22 23.228794 24.509907 226.238495 -162.575378 -10.443913 1.929189 228.744751
23 23.228794 24.509907 226.238495 -161.979462 -8.511907 3.270087 228.744751
[spine01]
22 -0.361383 -0.195265 0.000000 0.001815 0.001488 11.320962 0.410763
23 -0.361383 -0.195265 0.000000 0.001815 0.001488 11.320962 0.410763
[Bip01_Neck]
22 165.484543 71.581718 0.000119 175.896118 1.177290 24.871183 180.302734
23 165.484543 71.581718 0.000119 175.896118 1.177290 24.871183 180.302734
[L_humerus]
22 -13.983130 -135.272980 -120.471481 151.180069 56.907433 -113.696693 181.680161
23 -13.983130 -135.272980 -120.471481 147.296097 62.124294 -116.595726 181.680161
[R_humerus]
22 -13.983309 -135.273102 125.287651 -162.313614 -49.567764 -102.553947 184.909012
23 -13.983309 -135.273102 125.287651 -161.494171 -55.272854 -102.794968 184.909012
[weapon_bone]
22 235.964890 -300.705902 0.000000 0.000000 -89.951546 -128.212341 382.234833
23 235.964890 -300.705902 0.000000 0.000000 -89.951546 -128.212341 382.234833
[Bip01_Head]
22 201.313629 211.516754 15.929900 4.915016 3.595157 -66.077133 292.438507
23 201.313629 211.516754 15.929908 3.835597 3.581770 -65.506149 292.438507
[eye_left_bone]
22 -24.626970 125.451866 -64.772606 0.000000 -90.000000 -99.840431 143.318359
23 -24.626970 125.451866 -64.772606 0.000000 -90.000000 -99.840431 143.318359
[eye_right_bone]
22 -24.626970 125.451866 64.327362 0.000000 -89.965736 80.156380 143.117676
23 -24.626970 125.451866 64.327362 0.000000 -89.965736 80.156380 143.117676
[L_forearm]
22 322.776093 0.000000 -0.000119 0.000357 -0.002320 -107.506004 322.776093
23 322.776093 0.000000 -0.000119 0.000357 -0.002320 -107.506004 322.776093
[L_front_hand]
22 241.149185 -0.042021 -3.300071 -179.431961 -2.195943 -5.942918 241.171753
23 241.149185 -0.042021 -3.300071 -179.431961 -2.195943 -5.942917 241.171753
[L_weapon_bone]
22 156.183838 0.000000 0.000000 0.000014 0.000007 0.000001 156.183838
23 156.183838 0.000000 0.000000 0.000014 0.000007 0.000001 156.183838
[L_front_hand01_01]
22 86.095154 20.947098 -0.655860 0.139491 -0.584553 24.181791 88.609184
23 86.095154 20.947098 -0.655860 0.139491 -0.584553 24.181791 88.609184
[L_front_hand02_01]
22 86.935165 -11.437475 24.513514 119.190460 -21.905655 -12.119137 91.046425
23 86.935165 -11.437475 24.513514 119.190460 -21.905655 -12.119137 91.046425
[L_front_hand03_01]
22 86.637497 -14.123976 -20.424902 -120.437630 20.554029 -14.327168 90.126129
23 86.637497 -14.123976 -20.424902 -120.437630 20.554031 -14.327168 90.126129
[L_front_hand01_02]
22 71.020905 -0.000179 0.000030 0.000334 -0.002323 -106.379684 71.020905
23 71.020905 -0.000179 0.000030 0.000334 -0.002323 -106.379684 71.020905
[L_front_hand02_02]
22 71.020927 -0.000119 0.000060 0.000334 -0.002323 -106.379684 71.020927
23 71.020927 -0.000119 0.000060 0.000334 -0.002323 -106.379684 71.020927
[L_front_hand03_02]
22 71.020905 -0.000060 0.000060 0.000334 -0.002323 -106.379684 71.020905
23 71.020905 -0.000060 0.000060 0.000334 -0.002323 -106.379684 71.020905
[R_forearm]
22 322.776428 -0.000060 0.000030 0.196737 0.083011 -114.368637 322.776428
23 322.776428 -0.000060 0.000030 0.196737 0.083011 -114.368637 322.776428
[R_front_hand]
22 238.847015 -0.006795 2.210259 -0.341870 1.692705 -0.151779 238.857239
23 238.847015 -0.006795 2.210259 -0.341870 1.692705 -0.151779 238.857239
[R_weapon_bone]
22 155.664093 0.002503 -0.000030 0.003487 0.001180 -90.988930 155.664078
23 155.664093 0.002503 -0.000030 0.003487 0.001180 -90.988930 155.664078
[R_front_hand01_01]
22 87.624611 14.231146 22.918642 -119.218056 -22.033409 12.303375 91.683487
23 87.624611 14.231146 22.918642 -119.218056 -22.033411 12.303375 91.683487
[R_front_hand02_01]
22 89.356956 14.367283 -19.491137 120.545532 20.947184 14.823009 92.579636
23 89.356956 14.367283 -19.491137 120.545532 20.947184 14.823009 92.579636
[R_front_hand03_01]
22 87.286232 -22.307278 -0.143439 -0.231628 -0.392922 -24.567768 90.091743
23 87.286232 -22.307278 -0.143439 -0.231628 -0.392922 -24.567768 90.091743
[R_front_hand01_02]
22 71.020905 0.000060 0.000119 0.002323 -0.000334 106.381714 71.020905
23 71.020905 0.000060 0.000119 0.002323 -0.000334 106.381714 71.020905
[R_front_hand02_02]
22 71.020844 -0.000030 -0.000119 0.002323 -0.000334 106.381714 71.020836
23 71.020844 -0.000030 -0.000119 0.002323 -0.000334 106.381714 71.020836
[R_front_hand03_02]
22 71.020905 0.000000 0.000030 0.002323 -0.000334 106.381714 71.020905
23 71.020905 0.000000 0.000030 0.002323 -0.000334 106.381714 71.020905
[null_rope01_connect]
22 328.732483 0.000000 -0.000238 -138.665741 86.694824 137.129150 328.732483
23 328.732483 0.000000 -0.000238 -131.098740 82.990021 142.807617 328.732483
[Rope1_Seg01]
22 -0.000027 0.000011 0.000107 -5.404586 -3.796304 103.004410 0.000111
23 -0.000028 0.000010 0.000112 3.633281 -14.477713 98.761566 0.000116
[Rope1_Seg02]
22 139.999863 -0.000179 0.000000 2.489274 -2.251660 -1.957221 139.999863
23 139.999863 -0.000179 0.000000 4.854927 -5.426784 -3.906356 139.999863
[Rope1_Seg03]
22 139.999924 0.000060 -0.000060 8.751620 -8.306147 -6.381367 139.999924
23 139.999924 0.000060 -0.000060 0.566285 -1.026498 -0.097289 139.999924
[Rope1_Seg04]
22 139.999924 -0.000060 -0.000119 -8.475753 9.895031 5.392211 139.999924
23 139.999924 -0.000060 -0.000119 -13.803833 20.711136 22.521099 139.999924
[Rope1_Seg05]
22 139.999832 0.000119 -0.000060 -12.781406 13.483727 10.588140 139.999832
23 139.999832 0.000119 -0.000060 -5.283961 6.571816 13.198153 139.999832
[Rope1_Seg06]
22 139.999954 0.000119 -0.000060 -4.294914 3.589041 4.512897 139.999954
23 139.999954 0.000119 -0.000060 -1.623282 1.885490 5.057029 139.999954
[Rope1_Seg07]
22 139.999985 0.000060 0.000000 -2.440045 1.912701 2.830769 139.999985
23 139.999985 0.000060 0.000000 -0.865800 1.044162 3.080470 139.999985
[Rope1_Seg09]
22 121.602913 0.000119 -0.000089 -89.793175 -1.359789 0.847147 121.602913
23 121.602913 0.000119 -0.000089 -89.793175 -1.359789 0.847147 121.602913
[L_mid_hand01]
22 103.859421 1.038730 8.195221 106.855484 -31.239275 -9.461397 104.187431
23 103.859421 1.038730 8.195221 106.855484 -31.239275 -9.461397 104.187431
[L_mid_hand02]
22 105.572853 -4.139662 -10.864139 -142.331345 25.752670 -28.774628 106.211075
23 105.572853 -4.139662 -10.864139 -142.331345 25.752670 -28.774628 106.211075
[L_mid_hand03]
22 104.641464 17.579376 -3.913581 -16.122810 9.734291 34.223598 106.179977
23 104.641464 17.579376 -3.913581 -16.122810 9.734291 34.223598 106.179977
[null_rope02_connect]
22 328.732849 0.000179 -0.000119 118.694862 -50.241833 151.314011 328.732849
23 328.732849 0.000179 -0.000119 120.277954 -51.580147 152.158920 328.732849
[Rope2_Seg01]
22 -0.000138 -0.000046 -0.000153 -11.001428 -65.144432 174.970612 0.000211
23 -0.000140 -0.000041 -0.000153 -35.747360 -66.377182 -157.558945 0.000211
[Rope2_Seg02]
22 139.999741 -0.000060 -0.000119 -1.083957 18.349062 -15.176042 139.999756
23 139.999741 -0.000060 -0.000119 -2.326194 19.707790 -15.984560 139.999756
[Rope2_Seg03]
22 140.000107 0.000030 0.000000 3.961181 25.994888 -22.200455 140.000107
23 140.000107 0.000030 0.000000 2.293759 34.081047 -30.837755 140.000107
[Rope2_Seg04]
22 139.999802 0.000000 -0.000060 46.860325 20.336372 -20.108360 139.999802
23 139.999802 0.000000 -0.000060 72.017303 19.836533 -23.739607 139.999802
[Rope2_Seg05]
22 139.999985 -0.000060 0.000119 8.037720 -3.192509 -0.693850 139.999985
23 139.999985 -0.000060 0.000119 -16.153032 0.793349 3.816230 139.999985
[Rope2_Seg06]
22 139.999893 -0.000030 -0.000119 -27.305407 -3.641815 14.868030 139.999893
23 139.999893 -0.000030 -0.000119 -41.956287 2.890144 17.062880 139.999893
[Rope2_Seg07]
22 139.999893 0.000060 -0.000060 -8.604915 -8.763151 10.303489 139.999893
23 139.999893 0.000060 -0.000060 -9.066839 -5.489715 8.370721 139.999893
[Rope2_Seg09]
22 121.338966 0.000089 -0.000060 33.793236 -1.359788 -0.847141 121.338966
23 121.338966 0.000089 -0.000060 33.793236 -1.359788 -0.847141 121.338966
[R_mid_hand01]
22 104.680779 11.144459 -10.335981 -41.523792 25.424656 28.595957 105.778534
23 104.680779 11.144459 -10.335981 -41.523792 25.424656 28.595957 105.778534
[R_mid_hand02]
22 104.070427 2.443552 8.231699 72.847389 -32.746803 10.013901 104.424065
23 104.070427 2.443552 8.231699 72.847389 -32.746803 10.013901 104.424065
[R_mid_hand03]
22 106.028137 -11.221827 -5.996406 -167.901306 10.259192 -37.009720 106.788818
23 106.028137 -11.221827 -5.996406 -167.901306 10.259192 -37.009720 106.788818
[spine02]
22 129.756927 0.001550 0.000119 0.001147 -1.797837 -7.854275 129.756927
23 129.756927 0.001550 0.000119 0.001147 -1.797837 -7.854275 129.756927
[spine03]
22 79.115631 0.000000 -0.000119 1.459971 -2.848092 23.765959 79.115631
23 79.115631 0.000000 -0.000119 1.459971 -2.848092 23.765965 79.115631
[pelvis]
22 169.435242 0.051022 0.000000 -0.000005 0.000003 -4.322055 169.435257
23 169.435242 0.051022 0.000000 -0.000005 0.000003 -4.322055 169.435257
[null_rope03_connect]
22 -1.257226 -2.466202 137.391083 -81.981018 61.715023 171.600220 137.418976
23 -1.257226 -2.466202 137.391083 -83.733170 60.914101 168.925873 137.418976
[null_rope04_connect]
22 -1.259640 -2.480268 -137.844437 -81.981018 61.715023 171.600220 137.872513
23 -1.259640 -2.480268 -137.844437 -83.733170 60.914101 168.925873 137.872513
[Rope3_Seg01]
22 0.000042 -0.000047 0.000107 -129.509033 -6.461490 151.619598 0.000124
23 0.000046 -0.000046 0.000112 -131.165405 -7.014081 145.340225 0.000129
[Rope3_Seg02]
22 139.999924 -0.000119 0.000060 -0.089604 2.195802 2.983075 139.999924
23 139.999924 -0.000119 0.000060 0.558278 0.699030 2.047793 139.999924
[Rope3_Seg03]
22 139.999924 -0.000119 0.000119 -0.063960 2.859457 3.914076 139.999924
23 139.999924 -0.000119 0.000119 0.599678 0.879002 2.504127 139.999924
[Rope3_Seg04]
22 139.999924 0.000119 0.000000 -0.057774 3.847019 5.306373 139.999924
23 139.999924 0.000119 0.000000 0.619438 1.068369 3.108923 139.999924
[Rope3_Seg05]
22 139.999924 -0.000238 0.000060 0.792231 5.091614 8.718771 139.999924
23 139.999924 -0.000238 0.000060 1.766875 -0.704459 3.429009 139.999924
[Rope3_Seg06]
22 139.999893 -0.000119 -0.000060 0.897607 7.747789 10.481861 139.999893
23 139.999893 -0.000119 -0.000060 0.861708 3.192235 5.792208 139.999893
[Rope3_Seg07]
22 139.999771 0.000060 -0.000119 0.543890 8.459736 5.916229 139.999771
23 139.999771 0.000060 -0.000119 -0.299838 10.632899 8.037005 139.999771
[Rope3_Seg08]
22 139.999985 -0.000060 0.000000 0.802933 5.863286 3.455433 139.999985
23 139.999985 -0.000060 0.000000 0.481768 8.179752 6.222192 139.999985
[Rope3_Seg09]
22 90.185997 -0.000179 -0.000060 89.793228 -1.359877 -0.847183 90.185997
23 90.185997 -0.000179 -0.000060 89.793228 -1.359877 -0.847183 90.185997
[R_rear_hand01]
22 103.366196 -6.073594 -10.757982 -161.551193 16.666374 -30.088671 104.101845
23 103.366196 -6.073594 -10.757982 -161.551193 16.666374 -30.088671 104.101845
[R_rear_hand02]
22 100.509819 12.039542 -7.992327 -34.280552 19.289745 28.875523 101.543350
23 100.509819 12.039542 -7.992327 -34.280552 19.289745 28.875523 101.543350
[R_rear_hand03]
22 101.539970 5.215704 5.435467 83.366440 -30.933914 7.284830 101.819031
23 101.539970 5.215704 5.435467 83.366440 -30.933914 7.284830 101.819031
[Rope4_Seg01]
22 -0.000084 0.000096 0.000000 -16.263342 -10.213410 162.598557 0.000128
23 -0.000092 0.000095 0.000000 14.787925 -8.681724 145.167236 0.000132
[Rope4_Seg02]
22 139.999985 0.000060 0.000119 30.908638 9.793239 -13.728873 139.999985
23 139.999985 0.000060 0.000119 14.056042 5.035793 -8.074252 139.999985
[Rope4_Seg03]
22 139.999924 0.000000 -0.000238 18.687515 1.072282 -14.169675 139.999924
23 139.999924 0.000000 -0.000238 7.599899 2.236193 -4.659947 139.999924
[Rope4_Seg04]
22 139.999985 0.000000 0.000119 9.539437 -1.444658 -10.107634 139.999985
23 139.999985 0.000000 0.000119 3.921300 2.504899 -1.555923 139.999985
[Rope4_Seg05]
22 139.999802 -0.000060 -0.000119 3.857869 -2.911584 -5.900384 139.999802
23 139.999802 -0.000060 -0.000119 3.716553 -0.824258 -3.227114 139.999802
[Rope4_Seg06]
22 139.999924 0.000000 0.000060 1.907462 -4.618676 -4.749738 139.999924
23 139.999924 0.000000 0.000060 4.202167 -4.419530 -5.952719 139.999924
[Rope4_Seg07]
22 139.999802 0.000000 0.000000 1.315330 -7.334078 -5.397568 139.999802
23 139.999802 0.000000 0.000000 4.459062 -9.175962 -9.601859 139.999802
[Rope4_Seg08]
22 139.999924 0.000000 0.000119 -0.573162 -5.622027 -4.640958 139.999924
23 139.999924 0.000000 0.000119 0.597679 -6.506758 -6.549987 139.999924
[Rope4_Seg09]
22 90.185791 0.000060 0.000060 -135.617828 2.228885 0.850567 90.185791
23 90.185791 0.000060 0.000060 -135.617828 2.228885 0.850567 90.185791
[L_rear_hand01]
22 101.696655 -8.392275 -7.654577 -34.454281 -18.946800 151.655121 102.329041
23 101.696655 -8.392275 -7.654577 -34.454281 -18.946800 151.655121 102.329041
[L_rear_hand02]
22 102.726799 -1.568258 5.773216 83.407906 30.330435 172.796509 102.900848
23 102.726799 -1.568258 5.773216 83.407906 30.330435 172.796509 102.900848
[L_rear_hand03]
22 104.552910 9.721220 -10.420293 -161.379868 -16.473232 -150.512238 105.519653
23 104.552910 9.721220 -10.420293 -161.379868 -16.473232 -150.512238 105.519653
